<svg width="236" height="37" viewBox="0 0 236 37" fill="none" xmlns="http://www.w3.org/2000/svg">
<path d="M48.344 2.304L39.56 36H29.624L24.248 13.824L18.68 36H8.744L0.2 2.304H8.984L13.832 26.832L19.832 2.304H28.856L34.616 26.832L39.512 2.304H48.344ZM50.8284 22.56C50.8284 19.808 51.3404 17.392 52.3644 15.312C53.4204 13.232 54.8444 11.632 56.6364 10.512C58.4284 9.392 60.4284 8.832 62.6364 8.832C64.5244 8.832 66.1724 9.216 67.5804 9.984C69.0204 10.752 70.1244 11.76 70.8924 13.008V9.216H79.1004V36H70.8924V32.208C70.0924 33.456 68.9724 34.464 67.5324 35.232C66.1244 36 64.4764 36.384 62.5884 36.384C60.4124 36.384 58.4284 35.824 56.6364 34.704C54.8444 33.552 53.4204 31.936 52.3644 29.856C51.3404 27.744 50.8284 25.312 50.8284 22.56ZM70.8924 22.608C70.8924 20.56 70.3164 18.944 69.1644 17.76C68.0444 16.576 66.6684 15.984 65.0364 15.984C63.4044 15.984 62.0124 16.576 60.8604 17.76C59.7404 18.912 59.1804 20.512 59.1804 22.56C59.1804 24.608 59.7404 26.24 60.8604 27.456C62.0124 28.64 63.4044 29.232 65.0364 29.232C66.6684 29.232 68.0444 28.64 69.1644 27.456C70.3164 26.272 70.8924 24.656 70.8924 22.608ZM99.9665 29.04V36H95.7905C92.8145 36 90.4945 35.28 88.8305 33.84C87.1665 32.368 86.3345 29.984 86.3345 26.688V16.032H83.0705V9.216H86.3345V2.688H94.5425V9.216H99.9185V16.032H94.5425V26.784C94.5425 27.584 94.7345 28.16 95.1185 28.512C95.5025 28.864 96.1425 29.04 97.0385 29.04H99.9665ZM102.907 22.608C102.907 19.824 103.467 17.392 104.587 15.312C105.739 13.232 107.323 11.632 109.339 10.512C111.387 9.392 113.723 8.832 116.347 8.832C119.707 8.832 122.507 9.712 124.747 11.472C127.019 13.232 128.507 15.712 129.211 18.912H120.475C119.739 16.864 118.315 15.84 116.203 15.84C114.699 15.84 113.499 16.432 112.603 17.616C111.707 18.768 111.259 20.432 111.259 22.608C111.259 24.784 111.707 26.464 112.603 27.648C113.499 28.8 114.699 29.376 116.203 29.376C118.315 29.376 119.739 28.352 120.475 26.304H129.211C128.507 29.44 127.019 31.904 124.747 33.696C122.475 35.488 119.675 36.384 116.347 36.384C113.723 36.384 111.387 35.824 109.339 34.704C107.323 33.584 105.739 31.984 104.587 29.904C103.467 27.824 102.907 25.392 102.907 22.608ZM150.065 8.928C153.137 8.928 155.601 9.952 157.457 12C159.313 14.016 160.241 16.8 160.241 20.352V36H152.081V21.456C152.081 19.664 151.617 18.272 150.689 17.28C149.761 16.288 148.513 15.792 146.945 15.792C145.377 15.792 144.129 16.288 143.201 17.28C142.273 18.272 141.809 19.664 141.809 21.456V36H133.601V0.48H141.809V12.816C142.641 11.632 143.777 10.688 145.217 9.984C146.657 9.28 148.273 8.928 150.065 8.928Z" fill="#FAE800"/>
<path d="M204.105 2.304V36H195.897V15.792L188.361 36H181.737L174.153 15.744V36H165.945V2.304H175.641L185.097 25.632L194.457 2.304H204.105ZM235.255 22.176C235.255 22.944 235.207 23.744 235.111 24.576H216.535C216.663 26.24 217.191 27.52 218.119 28.416C219.079 29.28 220.247 29.712 221.623 29.712C223.671 29.712 225.095 28.848 225.895 27.12H234.631C234.183 28.88 233.367 30.464 232.183 31.872C231.031 33.28 229.575 34.384 227.815 35.184C226.055 35.984 224.087 36.384 221.911 36.384C219.287 36.384 216.951 35.824 214.903 34.704C212.855 33.584 211.255 31.984 210.103 29.904C208.951 27.824 208.375 25.392 208.375 22.608C208.375 19.824 208.935 17.392 210.055 15.312C211.207 13.232 212.807 11.632 214.855 10.512C216.903 9.392 219.255 8.832 221.911 8.832C224.503 8.832 226.807 9.376 228.823 10.464C230.839 11.552 232.407 13.104 233.527 15.12C234.679 17.136 235.255 19.488 235.255 22.176ZM226.855 20.016C226.855 18.608 226.375 17.488 225.415 16.656C224.455 15.824 223.255 15.408 221.815 15.408C220.439 15.408 219.271 15.808 218.311 16.608C217.383 17.408 216.807 18.544 216.583 20.016H226.855Z" fill="white"/>
</svg>
